
<svg width="224px" height="224px" viewBox="0 0 224 224" version="1.1" xmlns="http://www.w3.org/2000/svg" xmlns:xlink="http://www.w3.org/1999/xlink">
    <!-- Generator: Sketch 48.2 (47327) - http://www.bohemiancoding.com/sketch -->
    <desc>Created with Sketch.</desc>
    <defs>
        <filter x="-21.4%" y="-15.3%" width="142.8%" height="142.8%" filterUnits="objectBoundingBox" id="filter-1">
            <feOffset dx="0" dy="11" in="SourceAlpha" result="shadowOffsetOuter1"></feOffset>
            <feGaussianBlur stdDeviation="11" in="shadowOffsetOuter1" result="shadowBlurOuter1"></feGaussianBlur>
            <feColorMatrix values="0 0 0 0 0   0 0 0 0 0   0 0 0 0 0  0 0 0 0.344061368 0" type="matrix" in="shadowBlurOuter1" result="shadowMatrixOuter1"></feColorMatrix>
            <feMerge>
                <feMergeNode in="shadowMatrixOuter1"></feMergeNode>
                <feMergeNode in="SourceGraphic"></feMergeNode>
            </feMerge>
        </filter>
    </defs>
    <g id="Page-1" stroke="none" stroke-width="1" fill="none" fill-rule="evenodd">
        <g id="Healy" transform="translate(-838.000000, -564.000000)">
            <g id="Header-2" transform="translate(400.000000, 575.000000)">
                <g id="Group-12">
                    <g id="Group-6" filter="url(#filter-1)" transform="translate(460.000000, 0.000000)">
                        <rect id="Rectangle-4" fill="#FFFFFF" x="0" y="0" width="180" height="180"></rect>
                        <g id="Group-3" transform="translate(39.000000, 22.000000)" fill-rule="nonzero">
                            <g id="medical-history-(1)" transform="translate(14.000000, 0.000000)">
                                <g id="Group" opacity="0.5" transform="translate(23.459574, 0.000000)">
                                    <path d="M48.7560809,68.8566851 C48.7560809,70.7125106 47.2529362,72.2154979 45.3972681,72.2154979 L5.09088511,72.2154979 C3.23505957,72.2154979 1.73207234,70.7123532 1.73207234,68.8566851 L1.73207234,11.7560809 C1.73207234,9.90025532 3.23521702,8.39726809 5.09088511,8.39726809 L45.3972681,8.39726809 C47.2530936,8.39726809 48.7560809,9.90041277 48.7560809,11.7560809 L48.7560809,68.8566851 L48.7560809,68.8566851 Z" id="Shape" fill="#FFFFFF"></path>
                                    <path d="M45.3971106,73.894983 L5.09072766,73.894983 C2.31289362,73.894983 0.0524297872,71.6345191 0.0524297872,68.8566851 L0.0524297872,11.7560809 C0.0524297872,8.97824681 2.31289362,6.71778298 5.09072766,6.71778298 L45.3971106,6.71778298 C48.1749447,6.71778298 50.4354085,8.97824681 50.4354085,11.7560809 L50.4354085,68.8568426 C50.4354085,71.6345191 48.1749447,73.894983 45.3971106,73.894983 Z M5.09072766,10.0765957 C4.16368085,10.0765957 3.41124255,10.8306085 3.41124255,11.7560809 L3.41124255,68.8568426 C3.41124255,69.7821574 4.16368085,70.5363277 5.09072766,70.5363277 L45.3971106,70.5363277 C46.3241574,70.5363277 47.0765957,69.7823149 47.0765957,68.8568426 L47.0765957,11.7560809 C47.0765957,10.8306085 46.3241574,10.0765957 45.3971106,10.0765957 L5.09072766,10.0765957 Z" id="Shape" fill="#000000"></path>
                                    <path d="M42.0382979,15.1148936 L8.44969787,15.1148936 L8.44969787,11.7560809 C8.44969787,6.19049362 12.9607064,1.67948511 18.5262936,1.67948511 L31.9617021,1.67948511 C37.5272894,1.67948511 42.0382979,6.19049362 42.0382979,11.7560809 L42.0382979,15.1148936 Z" id="Shape" fill="#0093FF"></path>
                                    <path d="M42.0382979,16.7943787 L8.44969787,16.7943787 C7.52091915,16.7943787 6.77021277,16.0419404 6.77021277,15.1148936 L6.77021277,11.7560809 C6.77021277,5.27336596 12.0453106,0 18.5262936,0 L31.9617021,0 C38.4426851,0 43.717783,5.27336596 43.717783,11.7560809 L43.717783,15.1148936 C43.717783,16.0419404 42.9670766,16.7943787 42.0382979,16.7943787 Z M10.1290255,13.4354085 L40.3588128,13.4354085 L40.3588128,11.7560809 C40.3588128,7.12588511 36.5918979,3.35897021 31.9617021,3.35897021 L18.5262936,3.35897021 C13.8960979,3.35897021 10.129183,7.12588511 10.129183,11.7560809 L10.129183,13.4354085 L10.1290255,13.4354085 Z" id="Shape" fill="#000000"></path>
                                    <circle id="Oval" fill="#000000" cx="25.2439191" cy="8.39711064" r="1.67948511"></circle>
                                    <g transform="translate(10.076596, 21.727660)" fill="#000000" id="Shape">
                                        <path d="M28.6028894,3.46382979 L1.73191489,3.46382979 C0.80313617,3.46382979 0.0524297872,2.71139149 0.0524297872,1.78434468 C0.0524297872,0.857297872 0.80313617,0.104859574 1.73191489,0.104859574 L28.6028894,0.104859574 C29.5316681,0.104859574 30.2823745,0.857297872 30.2823745,1.78434468 C30.2823745,2.71139149 29.5315106,3.46382979 28.6028894,3.46382979 Z"></path>
                                        <path d="M15.1673234,11.8609404 L1.73191489,11.8609404 C0.80313617,11.8609404 0.0524297872,11.1085021 0.0524297872,10.1814553 C0.0524297872,9.25440851 0.80313617,8.50212766 1.73191489,8.50212766 L15.1673234,8.50212766 C16.0961021,8.50212766 16.8468085,9.25456596 16.8468085,10.1816128 C16.8468085,11.1086596 16.0961021,11.8609404 15.1673234,11.8609404 Z"></path>
                                        <path d="M28.6028894,11.8609404 L21.8851064,11.8609404 C20.9563277,11.8609404 20.2056213,11.1085021 20.2056213,10.1814553 C20.2056213,9.25440851 20.9563277,8.50212766 21.8851064,8.50212766 L28.6028894,8.50212766 C29.5316681,8.50212766 30.2823745,9.25456596 30.2823745,10.1816128 C30.2823745,11.1086596 29.5315106,11.8609404 28.6028894,11.8609404 Z"></path>
                                        <path d="M28.6028894,20.2582085 L15.1674809,20.2582085 C14.2387021,20.2582085 13.4879957,19.5057702 13.4879957,18.5787234 C13.4879957,17.6516766 14.2387021,16.8992383 15.1674809,16.8992383 L28.6028894,16.8992383 C29.5316681,16.8992383 30.2823745,17.6516766 30.2823745,18.5787234 C30.2823745,19.5057702 29.5315106,20.2582085 28.6028894,20.2582085 Z"></path>
                                        <path d="M8.44969787,20.2582085 L1.73191489,20.2582085 C0.80313617,20.2582085 0.0524297872,19.5057702 0.0524297872,18.5787234 C0.0524297872,17.6516766 0.80313617,16.8992383 1.73191489,16.8992383 L8.44969787,16.8992383 C9.3784766,16.8992383 10.129183,17.6516766 10.129183,18.5787234 C10.129183,19.5057702 9.37831915,20.2582085 8.44969787,20.2582085 Z"></path>
                                        <path d="M28.6028894,37.0524298 L15.1674809,37.0524298 C14.2387021,37.0524298 13.4879957,36.2999915 13.4879957,35.3729447 C13.4879957,34.4458979 14.2387021,33.6934596 15.1674809,33.6934596 L28.6028894,33.6934596 C29.5316681,33.6934596 30.2823745,34.4458979 30.2823745,35.3729447 C30.282217,36.3001489 29.5315106,37.0524298 28.6028894,37.0524298 Z"></path>
                                        <path d="M8.44969787,37.0524298 L1.73191489,37.0524298 C0.80313617,37.0524298 0.0524297872,36.2999915 0.0524297872,35.3729447 C0.0524297872,34.4458979 0.80313617,33.6934596 1.73191489,33.6934596 L8.44969787,33.6934596 C9.3784766,33.6934596 10.129183,34.4458979 10.129183,35.3729447 C10.1290255,36.3001489 9.37831915,37.0524298 8.44969787,37.0524298 Z"></path>
                                        <path d="M15.1673234,28.6553191 L1.73191489,28.6553191 C0.80313617,28.6553191 0.0524297872,27.9028809 0.0524297872,26.975834 C0.0524297872,26.0487872 0.80313617,25.2963489 1.73191489,25.2963489 L15.1673234,25.2963489 C16.0961021,25.2963489 16.8468085,26.0487872 16.8468085,26.975834 C16.8468085,27.9028809 16.0961021,28.6553191 15.1673234,28.6553191 Z"></path>
                                        <path d="M28.6028894,28.6553191 L21.8851064,28.6553191 C20.9563277,28.6553191 20.2056213,27.9028809 20.2056213,26.975834 C20.2056213,26.0487872 20.9563277,25.2963489 21.8851064,25.2963489 L28.6028894,25.2963489 C29.5316681,25.2963489 30.2823745,26.0487872 30.2823745,26.975834 C30.2823745,27.9028809 29.5315106,28.6553191 28.6028894,28.6553191 Z"></path>
                                    </g>
                                </g>
                                <circle id="Oval" fill="#13BA8E" cx="58.7800894" cy="41.9858681" r="8.39711064"></circle>
                                <circle id="Oval" fill="#000000" cx="58.7800894" cy="41.9858681" r="1.67948511"></circle>
                                <path d="M68.8566851,41.9858681 C68.8566851,36.4286255 64.3373319,31.9092723 58.7800894,31.9092723 C53.2228468,31.9092723 48.7034936,36.4286255 48.7034936,41.9858681 C48.7034936,46.9687447 52.3428766,51.1069191 57.1006043,51.9113149 L57.1006043,65.4978723 C57.1006043,68.2757064 54.8401404,70.5361702 52.0623064,70.5361702 L50.3829787,70.5361702 C47.6051447,70.5361702 45.3446809,68.2757064 45.3446809,65.4978723 L45.3446809,58.7800894 C45.3446809,54.1498936 41.577766,50.3829787 36.9475702,50.3829787 L35.2680851,50.3829787 C30.6378894,50.3829787 26.8709745,54.1498936 26.8709745,58.7800894 L26.8709745,65.4978723 C26.8709745,68.2757064 24.6105106,70.5361702 21.8326766,70.5361702 L20.1531915,70.5361702 C17.3753574,70.5361702 15.1148936,68.2757064 15.1148936,65.4978723 L15.1148936,36.8316894 C21.7319106,36.0003702 26.8709745,30.3507064 26.8709745,23.5121617 L26.8709745,16.7943787 L26.8709745,15.1148936 L26.8709745,5.03829787 C26.8709745,3.18593617 25.3645234,1.67948511 23.5121617,1.67948511 L20.1531915,1.67948511 C19.2244128,1.67948511 18.4737064,2.4319234 18.4737064,3.35897021 C18.4737064,4.28601702 19.2244128,5.03829787 20.1531915,5.03829787 L23.5120043,5.03829787 L23.5120043,15.1148936 L23.5120043,16.7943787 C23.5120043,22.3516213 18.9926511,26.8709745 13.4354085,26.8709745 C7.87816596,26.8709745 3.35881277,22.3516213 3.35881277,16.7943787 L3.35881277,15.1148936 L3.35881277,5.03829787 L6.71762553,5.03829787 C7.64640426,5.03829787 8.39711064,4.28585957 8.39711064,3.35881277 C8.39711064,2.43176596 7.64640426,1.67932766 6.71762553,1.67932766 L3.35881277,1.67932766 C1.50645106,1.67948511 0,3.18593617 0,5.03829787 L0,15.1148936 L0,16.7943787 L0,23.5121617 C0,30.3508638 5.13906383,36.0003702 11.7560809,36.8316894 L11.7560809,65.4978723 C11.7560809,70.1280681 15.5229957,73.894983 20.1531915,73.894983 L21.8326766,73.894983 C26.4628723,73.894983 30.2297872,70.1280681 30.2297872,65.4978723 L30.2297872,58.7800894 C30.2297872,56.0022553 32.4902511,53.7417915 35.2680851,53.7417915 L36.9475702,53.7417915 C39.7254043,53.7417915 41.9858681,56.0022553 41.9858681,58.7800894 L41.9858681,65.4978723 C41.9858681,70.1280681 45.752783,73.894983 50.3829787,73.894983 L52.0624638,73.894983 C56.6926596,73.894983 60.4595745,70.1280681 60.4595745,65.4978723 L60.4595745,51.9113149 C65.2174596,51.1067617 68.8566851,46.9687447 68.8566851,41.9858681 Z M3.68472766,26.0094255 C6.13664681,28.602417 9.59622553,30.2297872 13.4354085,30.2297872 C17.2745915,30.2297872 20.7341702,28.602417 23.1862468,26.0094255 C22.0710511,30.3592085 18.1277957,33.5887574 13.4354085,33.5887574 C8.74302128,33.5887574 4.79976596,30.3590511 3.68472766,26.0094255 Z M58.7800894,48.7034936 C55.0752085,48.7034936 52.0623064,45.6905915 52.0623064,41.9857106 C52.0623064,38.2808298 55.0752085,35.2679277 58.7800894,35.2679277 C62.4849702,35.2679277 65.4978723,38.2809872 65.4978723,41.9858681 C65.4978723,45.6905915 62.4849702,48.7034936 58.7800894,48.7034936 Z" id="Shape" fill="#000000"></path>
                            </g>
                        </g>
                    </g>
                </g>
            </g>
        </g>
    </g>
</svg>