
<svg width="224px" height="224px" viewBox="0 0 224 224" version="1.1" xmlns="http://www.w3.org/2000/svg" xmlns:xlink="http://www.w3.org/1999/xlink">
    <!-- Generator: Sketch 48.2 (47327) - http://www.bohemiancoding.com/sketch -->
    <desc>Created with Sketch.</desc>
    <defs>
        <filter x="-21.4%" y="-15.3%" width="142.8%" height="142.8%" filterUnits="objectBoundingBox" id="filter-1">
            <feOffset dx="0" dy="11" in="SourceAlpha" result="shadowOffsetOuter1"></feOffset>
            <feGaussianBlur stdDeviation="11" in="shadowOffsetOuter1" result="shadowBlurOuter1"></feGaussianBlur>
            <feColorMatrix values="0 0 0 0 0   0 0 0 0 0   0 0 0 0 0  0 0 0 0.344061368 0" type="matrix" in="shadowBlurOuter1" result="shadowMatrixOuter1"></feColorMatrix>
            <feMerge>
                <feMergeNode in="shadowMatrixOuter1"></feMergeNode>
                <feMergeNode in="SourceGraphic"></feMergeNode>
            </feMerge>
        </filter>
    </defs>
    <g id="Page-1" stroke="none" stroke-width="1" fill="none" fill-rule="evenodd">
        <g id="Healy" transform="translate(-608.000000, -564.000000)">
            <g id="Header-2" transform="translate(400.000000, 575.000000)">
                <g id="Group-12">
                    <g id="Group-6" filter="url(#filter-1)" transform="translate(230.000000, 0.000000)">
                        <rect id="Rectangle-4" fill="#FFFFFF" x="0" y="0" width="180" height="180"></rect>
                        <g id="Group-3" transform="translate(22.000000, 28.000000)" fill-rule="nonzero">
                            <g id="Group-13">
                                <g id="pills-1" transform="translate(36.000000, 0.000000)">
                                    <path d="M30.1818828,58.4597109 L22.620875,58.4597109 C17.3982383,58.4597109 13.1641953,54.2258125 13.1641953,49.0030312 C13.1641953,43.7803945 17.3980938,39.5463516 22.620875,39.5463516 L30.1818828,39.5463516 L30.1818828,58.4597109 L30.1818828,58.4597109 Z" id="Shape" fill="#0093FF"></path>
                                    <g id="Group" transform="translate(0.000000, 22.113281)" fill="#2D527C">
                                        <path d="M30.1818828,38.5485078 L22.620875,38.5485078 C16.192125,38.5485078 10.9618281,33.3183555 10.9618281,26.8894609 C10.9618281,20.4605664 16.1922695,15.2304141 22.620875,15.2304141 L30.1818828,15.2304141 C31.3982578,15.2304141 32.38425,16.2166953 32.38425,17.4327812 L32.38425,36.3464297 C32.38425,37.5625156 31.3982578,38.5485078 30.1818828,38.5485078 Z M22.620875,19.6350039 C18.6206836,19.6350039 15.3665625,22.8892695 15.3665625,26.8893164 C15.3665625,30.8895078 18.6208281,34.1436289 22.620875,34.1436289 L27.9795156,34.1436289 L27.9795156,19.6348594 L22.620875,19.6348594 L22.620875,19.6350039 Z" id="Shape"></path>
                                        <path d="M39.3230508,38.5485078 L22.5360352,38.5485078 C16.1072852,38.5485078 10.8769883,33.3180664 10.8769883,26.8894609 C10.8769883,20.4608555 16.1074297,15.2304141 22.5360352,15.2304141 L39.3229062,15.2304141 C45.7518008,15.2304141 50.9819531,20.4608555 50.9819531,26.8894609 C50.9819531,33.3180664 45.7519453,38.5485078 39.3230508,38.5485078 Z M22.5360352,19.6350039 C18.5358438,19.6350039 15.2817227,22.8892695 15.2817227,26.8893164 C15.2817227,30.8895078 18.5359883,34.1436289 22.5360352,34.1436289 L39.3229063,34.1436289 C43.3230977,34.1436289 46.5772188,30.8893633 46.5772188,26.8893164 C46.5772188,22.889125 43.3229531,19.6350039 39.3229063,19.6350039 L22.5360352,19.6350039 L22.5360352,19.6350039 Z" id="Shape"></path>
                                        <path d="M51.9698242,51.8867187 L9.88926172,51.8867187 C4.48928516,51.8867187 0.0962578125,47.4936914 0.0962578125,42.0937148 L0.0962578125,13.2280781 C0.0962578125,8.16037891 3.96579297,3.97952344 8.90529297,3.48421484 L8.90529297,2.33548047 C8.90529297,1.11939453 9.89128516,0.133113281 11.1076602,0.133113281 C12.3240352,0.133113281 13.3100273,1.11939453 13.3100273,2.33548047 L13.3100273,5.63744141 C13.3100273,6.85352734 12.3240352,7.83980859 11.1076602,7.83980859 L9.88926172,7.83980859 C6.91798828,7.83980859 4.50099219,10.2569492 4.50099219,13.2280781 L4.50099219,42.0935703 C4.50099219,45.0645547 6.91813281,47.4818398 9.88926172,47.4818398 L51.9699688,47.4818398 C54.9412422,47.4818398 57.3582383,45.0645547 57.3582383,42.0935703 L57.3582383,30.0931406 C57.3582383,28.8770547 58.3442305,27.8907734 59.5606055,27.8907734 C60.7769805,27.8907734 61.7629727,28.8770547 61.7629727,30.0931406 L61.7629727,42.0935703 C61.7629727,47.4936914 57.3698008,51.8867187 51.9698242,51.8867187 Z" id="Shape"></path>
                                        <path d="M59.5606055,19.9521055 C58.3442305,19.9521055 57.3582383,18.9658242 57.3582383,17.7497383 L57.3582383,13.2280781 C57.3582383,10.2570938 54.9410977,7.83980859 51.9699688,7.83980859 L50.7515703,7.83980859 C49.5351953,7.83980859 48.5492031,6.85352734 48.5492031,5.63744141 L48.5492031,2.33548047 C48.5492031,1.11939453 49.5351953,0.133113281 50.7515703,0.133113281 C51.9679453,0.133113281 52.9539375,1.11939453 52.9539375,2.33548047 L52.9539375,3.48421484 C57.8934375,3.97952344 61.7629727,8.16052344 61.7629727,13.2280781 L61.7629727,17.7497383 C61.7629727,18.9659688 60.7769805,19.9521055 59.5606055,19.9521055 Z" id="Shape"></path>
                                    </g>
                                    <path d="M52.1830078,15.8571016 L9.67607813,15.8571016 C5.90540234,15.8571016 2.84871094,12.8004102 2.84871094,9.02973438 L2.84871094,9.02973438 C2.84871094,5.25905859 5.90540234,2.20236719 9.67607813,2.20236719 L52.1831523,2.20236719 C55.9538281,2.20236719 59.0105195,5.25905859 59.0105195,9.02973438 L59.0105195,9.02973438 C59.010375,12.8004102 55.9536836,15.8571016 52.1830078,15.8571016 Z" id="Shape" fill="#13BA8E"></path>
                                    <path d="M52.1830078,18.0594688 L9.67607813,18.0594688 C4.69712109,18.0594688 0.64634375,14.0086914 0.64634375,9.02973438 C0.64634375,4.05077734 4.69712109,0 9.67607813,0 L52.1831523,0 C57.1621094,0 61.2128867,4.05077734 61.2128867,9.02973438 C61.2128867,14.0086914 57.1619648,18.0594688 52.1830078,18.0594688 Z M9.67607813,4.40473438 C7.12567969,4.40473438 5.05107813,6.479625 5.05107813,9.02973438 C5.05107813,11.5798438 7.12567969,13.6547344 9.67607813,13.6547344 L52.1831523,13.6547344 C54.7335508,13.6547344 56.8081523,11.5798438 56.8081523,9.02973438 C56.8081523,6.479625 54.7335508,4.40473438 52.1831523,4.40473438 L9.67607813,4.40473438 Z" id="Shape" fill="#2D527C"></path>
                                </g>
                            </g>
                        </g>
                    </g>
                </g>
            </g>
        </g>
    </g>
</svg>